<svg width="128" height="128" viewBox="0 0 128 128" fill="none" xmlns="http://www.w3.org/2000/svg">
<path d="M75.9466 56.32C74.2933 62.9333 64 59.5733 60.8 58.6667L63.7333 47.04C67.04 48 77.6533 49.3867 75.9466 56.32ZM59.36 64.64L56.16 77.4933C60.1066 78.5067 72.32 82.4 74.1333 75.1467C76.0533 67.5733 63.3066 65.6 59.36 64.64ZM115.733 76.9067C108.587 105.493 79.68 122.88 51.0933 115.733C22.5066 108.587 5.13597 79.68 12.2666 51.0933C19.4133 22.5067 48.32 5.14133 76.9066 12.2667C105.44 19.4133 122.827 48.32 115.733 76.9067ZM75.7866 42.9333L78.1866 33.3333L72.32 32L69.9733 41.2267C68.4266 40.8533 66.88 40.48 65.28 40.16L67.6266 30.72L61.8133 29.3333L59.4133 38.88C58.1333 38.56 56.8533 38.2933 55.68 37.9733L47.6266 35.9467L46.0266 42.1867C46.0266 42.1867 50.4 43.2 50.2933 43.2533C52.6933 43.84 53.12 45.3333 53.0133 46.6667L46.4533 72.96C46.1866 73.7067 45.3333 74.6667 43.7866 74.4C43.84 74.4533 39.52 73.3333 39.52 73.3333L36.64 80L44.2133 81.92C45.6533 82.2933 47.04 82.6667 48.4266 82.9867L45.9733 92.6933L51.84 94.1867L54.24 84.5333C55.84 84.96 57.3866 85.3333 58.88 85.76L56.48 95.3067L62.3466 96.8L64.8 87.0933C74.6666 88.96 82.24 88.2133 85.3333 79.2C88 72 85.3333 67.7333 80 65.0133C83.84 64 86.72 61.6 87.52 56.3733C88.5866 49.28 83.1466 45.4933 75.7866 42.9333Z" fill="#FFBF5E"/>
</svg>
